<svg xmlns="http://www.w3.org/2000/svg" viewBox="0 0 600 340" width="600" height="340">
  <rect width="600" height="340" fill="#f0fdf4"/>
  <rect x="20" y="20" width="560" height="300" rx="16" fill="#dcfce7" opacity="0.5"/>
  <!-- Document -->
  <rect x="200" y="50" width="200" height="240" rx="10" fill="#fff" stroke="#059669" stroke-width="1.5"/>
  <rect x="220" y="80" width="160" height="10" rx="3" fill="#059669" opacity="0.3"/>
  <rect x="220" y="100" width="130" height="8" rx="3" fill="#6b7280" opacity="0.3"/>
  <rect x="220" y="116" width="150" height="8" rx="3" fill="#6b7280" opacity="0.3"/>
  <rect x="220" y="132" width="120" height="8" rx="3" fill="#6b7280" opacity="0.3"/>
  <!-- Map preview in document -->
  <rect x="220" y="152" width="160" height="80" rx="6" fill="#dcfce7" stroke="#059669" stroke-width="1"/>
  <circle cx="270" cy="192" r="12" fill="#059669" opacity="0.4"/>
  <circle cx="310" cy="180" r="8" fill="#047857" opacity="0.5"/>
  <circle cx="340" cy="200" r="10" fill="#059669" opacity="0.4"/>
  <rect x="220" y="244" width="100" height="8" rx="3" fill="#6b7280" opacity="0.3"/>
  <rect x="220" y="260" width="130" height="8" rx="3" fill="#6b7280" opacity="0.3"/>
  <!-- Print icon -->
  <rect x="150" y="200" width="80" height="60" rx="8" fill="#064e3b" opacity="0.9"/>
  <rect x="162" y="188" width="56" height="30" rx="4" fill="#fff" stroke="#064e3b" stroke-width="1.5"/>
  <rect x="162" y="248" width="56" height="24" rx="4" fill="#fff" stroke="#064e3b" stroke-width="1.5"/>
  <rect x="168" y="254" width="44" height="4" rx="2" fill="#059669" opacity="0.5"/>
  <rect x="168" y="262" width="30" height="4" rx="2" fill="#059669" opacity="0.3"/>
  <circle cx="210" cy="214" r="4" fill="#6ee7b7"/>
  <text x="300" y="318" text-anchor="middle" font-family="system-ui, sans-serif" font-size="13" font-weight="600" fill="#064e3b">Kalisio Print · PDF · Cartographie</text>
</svg>
