<svg xmlns="http://www.w3.org/2000/svg" viewBox="0 0 600 340" width="600" height="340">
  <rect width="600" height="340" fill="#f0fdf4"/>
  <rect x="20" y="20" width="560" height="300" rx="16" fill="#dcfce7" opacity="0.6"/>
  <!-- Neural network nodes -->
  <circle cx="120" cy="100" r="18" fill="#059669" opacity="0.8"/>
  <circle cx="120" cy="170" r="18" fill="#059669" opacity="0.8"/>
  <circle cx="120" cy="240" r="18" fill="#059669" opacity="0.8"/>
  <circle cx="300" cy="80" r="18" fill="#047857" opacity="0.9"/>
  <circle cx="300" cy="140" r="18" fill="#047857" opacity="0.9"/>
  <circle cx="300" cy="200" r="18" fill="#047857" opacity="0.9"/>
  <circle cx="300" cy="260" r="18" fill="#047857" opacity="0.9"/>
  <circle cx="480" cy="120" r="18" fill="#064e3b" opacity="0.9"/>
  <circle cx="480" cy="220" r="18" fill="#064e3b" opacity="0.9"/>
  <!-- Connections -->
  <line x1="138" y1="100" x2="282" y2="80" stroke="#059669" stroke-width="1.5" opacity="0.4"/>
  <line x1="138" y1="100" x2="282" y2="140" stroke="#059669" stroke-width="1.5" opacity="0.4"/>
  <line x1="138" y1="100" x2="282" y2="200" stroke="#059669" stroke-width="1.5" opacity="0.4"/>
  <line x1="138" y1="170" x2="282" y2="80" stroke="#059669" stroke-width="1.5" opacity="0.4"/>
  <line x1="138" y1="170" x2="282" y2="140" stroke="#059669" stroke-width="1.5" opacity="0.4"/>
  <line x1="138" y1="170" x2="282" y2="200" stroke="#059669" stroke-width="1.5" opacity="0.4"/>
  <line x1="138" y1="170" x2="282" y2="260" stroke="#059669" stroke-width="1.5" opacity="0.4"/>
  <line x1="138" y1="240" x2="282" y2="140" stroke="#059669" stroke-width="1.5" opacity="0.4"/>
  <line x1="138" y1="240" x2="282" y2="200" stroke="#059669" stroke-width="1.5" opacity="0.4"/>
  <line x1="138" y1="240" x2="282" y2="260" stroke="#059669" stroke-width="1.5" opacity="0.4"/>
  <line x1="318" y1="80" x2="462" y2="120" stroke="#047857" stroke-width="1.5" opacity="0.4"/>
  <line x1="318" y1="140" x2="462" y2="120" stroke="#047857" stroke-width="1.5" opacity="0.4"/>
  <line x1="318" y1="200" x2="462" y2="220" stroke="#047857" stroke-width="1.5" opacity="0.4"/>
  <line x1="318" y1="260" x2="462" y2="220" stroke="#047857" stroke-width="1.5" opacity="0.4"/>
  <!-- Label -->
  <text x="300" y="318" text-anchor="middle" font-family="system-ui, sans-serif" font-size="13" font-weight="600" fill="#064e3b">Machine Learning · Deep Learning · RAG</text>
</svg>
