<svg xmlns="http://www.w3.org/2000/svg" width="600" height="425.098" viewBox="0 0 600 425.098"><linearGradient id="a" gradientUnits="userSpaceOnUse" x1="204.609" y1="92.43" x2="506.721" y2="92.43"><stop offset=".001" stop-color="#dadbdd"/><stop offset=".889" stop-color="#656565"/></linearGradient><path d="M506.721 113.047c-72.147 21.294-197.941 55.703-300.797 69.146a165.883 165.883 0 0 1-1.315-20.843c0-17.595 2.795-34.532 7.975-50.359a102.11 102.11 0 0 1 2.055-5.96C236.222 46.736 290.322 4.887 354.165 2.75c1.685-.04 3.412-.082 5.138-.082 69.023 0 127.522 46.371 147.418 110.379z" fill="url(#a)"/><linearGradient id="b" gradientUnits="userSpaceOnUse" x1="214.064" y1="228.173" x2="514.039" y2="228.173"><stop offset=".216" stop-color="#79797d"/><stop offset=".654" stop-color="#504d4e"/></linearGradient><path d="M514.039 161.35c0 87.604-69.27 158.641-154.736 158.641-1.726 0-3.453-.041-5.138-.082-43.905-1.48-83.165-21.706-110.461-53.113-.288-.33-.576-.7-.905-1.028a159.2 159.2 0 0 1-28.735-49.701c92.948-15.704 203.697-42.302 298.084-79.712a166.757 166.757 0 0 1 1.89 24.995z" fill="url(#b)"/><path d="M338.931 87.633l22.88-6.96-14.525 19.825 3.316 2.429 21.815-29.777L337.735 83.7l1.196 3.934zm90.132-40.21l-19.924 2.34 9.767-9.14-2.81-3.004-18.897 17.684 32.346-3.797-.482-4.083z" fill="#0b2f7b"/><path d="M236.263 270.043c-.452.165-.863.33-1.274.452.37-.164.78-.41 1.15-.575.042.04.083.082.124.123z" opacity=".08" fill="#bc3b3b"/><linearGradient id="c" gradientUnits="userSpaceOnUse" x1="124.281" y1="146.304" x2="204.403" y2="146.304"><stop offset=".001" stop-color="#dadbdd"/><stop offset=".889" stop-color="#656565"/></linearGradient><path d="M130.447 187.866c-2.096 0-4.152 0-6.166-.083.247-10.03 2.179-19.65 5.55-28.53 7.276-19.485 21.377-35.477 39.3-45.014a80.646 80.646 0 0 1 35.272-9.496 137.626 137.626 0 0 0-1.768 4.933c-5.426 16.197-8.386 33.586-8.386 51.674 0 7.523.494 14.882 1.521 22.117-23.473 2.795-45.549 4.399-65.323 4.399z" fill="url(#c)"/><linearGradient id="d" gradientUnits="userSpaceOnUse" x1="132.791" y1="246.488" x2="236.139" y2="246.488"><stop offset=".216" stop-color="#79797d"/><stop offset=".654" stop-color="#504d4e"/></linearGradient><path d="M236.14 269.92c-.37.164-.782.411-1.151.575-8.634 3.125-17.883 4.81-27.544 4.81-22.322 0-42.589-9.003-57.512-23.679a85.533 85.533 0 0 1-17.142-24.008c21.829-2.466 45.919-5.796 71.489-9.948 7.235 19.568 18.17 37.245 31.86 52.25z" fill="url(#d)"/><linearGradient id="e" gradientUnits="userSpaceOnUse" x1="84.61" y1="173.436" x2="120.951" y2="173.436"><stop offset=".001" stop-color="#dadbdd"/><stop offset=".889" stop-color="#656565"/></linearGradient><path d="M113.798 187.455c-10.976-.576-20.72-1.768-29.188-3.536 7.441-13.32 20.76-22.733 36.341-24.501a84.848 84.848 0 0 0-7.153 28.037z" fill="url(#e)"/><linearGradient id="f" gradientUnits="userSpaceOnUse" x1="83.953" y1="243.445" x2="139.039" y2="243.445"><stop offset=".216" stop-color="#79797d"/><stop offset=".654" stop-color="#504d4e"/></linearGradient><path d="M139.04 256.23a47.473 47.473 0 0 1-12.621 1.727c-18.335 0-34.286-10.524-42.466-25.981a919.103 919.103 0 0 0 36.464-3.042c4.44 10.318 10.812 19.61 18.622 27.297z" fill="url(#f)"/><linearGradient id="g" gradientUnits="userSpaceOnUse" x1="13.644" y1="163.899" x2="567.399" y2="163.899"><stop offset=".001" stop-color="#0f568a"/><stop offset=".15" stop-color="#155f92"/><stop offset=".397" stop-color="#2579a7"/><stop offset=".71" stop-color="#40a2ca"/><stop offset=".993" stop-color="#5bcdee"/></linearGradient><path d="M567.399 103.016c-18.006 8.88-36.999 17.225-56.731 25.118-94.963 37.944-206.205 64.541-299.153 80.122-3.33.575-6.66 1.11-9.907 1.603-25.9 4.193-50.195 7.482-72.147 9.908-4.07.452-8.058.863-11.963 1.233-13.36 1.356-25.735 2.302-36.875 2.919-10.03.575-19.075.863-27.009.863-20.76 0-33.997-1.891-37.122-5.714-17.512-21.213 51.47-31.285 51.47-31.285 4.069 1.48 8.468 2.755 13.154 3.823 9.579 2.138 20.431 3.454 32.394 4.07 3.536.165 7.236.288 10.977.33 1.973.082 3.946.082 5.96.082 20.185 0 42.713-1.645 66.598-4.482 3.33-.37 6.741-.822 10.154-1.274 103.678-13.525 229.554-47.933 301.783-69.351 33.998-10.031 56.074-17.225 58.417-17.965z" fill="url(#g)"/><path fill="#033c7a" d="M390.464 88.586l-23.35-11.675V58.864l21.747 9.045z"/><path d="M403.167 57.553v21.496l-12.703 9.537-1.603-20.677 14.306-10.356z" fill="#014379"/><path d="M403.167 57.553L388.86 67.909l-21.747-9.045c6.18-3.67 12.358-7.341 18.537-11.012l17.516 9.701z" fill="#9896d6"/><path d="M15.458 400.543c-1.451 0-2.489-.297-3.113-.899-.626-.602-.94-1.578-.94-2.927v-38.644H0v40.969c0 3.352.976 6.03 2.927 8.03 1.95 2.002 4.926 3.002 8.93 3.002 9.553 0 16.857-.273 21.91-.827l-.524-8.704H15.458zm38.044-3.75l-.75 2.739c-.352 1.276-.6 2.212-.751 2.814h-.976a56.49 56.49 0 0 0-1.126-5.552l-6.903-23.94H31.141l12.08 34.293c.55 1.803 1.75 2.702 3.603 2.702h2.1l-.149.301c-.951 2.148-2.278 3.862-3.978 5.139-1.7 1.277-4.051 2.312-7.054 3.115l.901 6.528c2.9.35 5.54.149 7.917-.602 2.375-.747 4.364-1.911 5.966-3.489 1.6-1.574 2.912-3.216 3.938-4.914a29.838 29.838 0 0 0 2.59-5.552l13.131-37.52H60.331l-6.829 23.939zm42.172 4.95c-3.403 0-5.741-.722-7.016-2.175-1.277-1.45-1.913-4.2-1.913-8.254 0-4.05.636-6.8 1.913-8.254 1.275-1.45 3.613-2.176 7.016-2.176 1.652 0 5.178.052 10.58.152l1.2-6.905c-3.5-1.55-8.055-2.328-13.655-2.328-6.855 0-11.683 1.465-14.483 4.392-2.802 2.927-4.203 7.965-4.203 15.119 0 7.106 1.389 12.12 4.165 15.047s7.566 4.387 14.37 4.387c5.751 0 10.53-.823 14.332-2.477l-.975-7.202c-3.202.45-6.98.675-11.331.675zm50.69-9.265c1.774-1.726 2.663-4.316 2.663-7.768-.05-4.352-1.45-7.588-4.2-9.715-2.753-2.128-7.205-3.192-13.36-3.192-6.802 0-11.642 1.453-14.518 4.356-2.879 2.898-4.316 7.977-4.316 15.231 0 6.905 1.476 11.855 4.428 14.858 2.951 2.999 7.903 4.5 14.858 4.5 6.903 0 12.28-.923 16.133-2.774l-1.05-6.905c-5.253.55-9.856.827-13.808.827-2.953 0-5.064-.461-6.341-1.389-1.275-.927-2.09-2.738-2.439-5.44h13.359c3.95 0 6.814-.863 8.59-2.589zm-11.669-4.09H124.19c.15-3.401.75-5.665 1.8-6.79 1.053-1.128 3.004-1.69 5.854-1.69 2.403 0 4.053.338 4.954 1.012.9.679 1.349 1.89 1.349 3.641 0 1.253-.237 2.2-.713 2.85-.475.651-1.387.976-2.738.976zm10.806-27.312l-5.029-7.656-15.157 11.105 3.302 4.805 16.884-8.254zm42.88 31.402c1.782-1.726 2.665-4.316 2.665-7.768-.048-4.352-1.453-7.588-4.2-9.715-2.753-2.128-7.201-3.192-13.36-3.192-6.8 0-11.64 1.453-14.516 4.356-2.879 2.898-4.316 7.977-4.316 15.231 0 6.905 1.475 11.855 4.428 14.858 2.95 2.999 7.903 4.5 14.858 4.5 6.901 0 12.28-.923 16.135-2.774l-1.052-6.905c-5.251.55-9.86.827-13.81.827-2.951 0-5.063-.461-6.34-1.389-1.274-.927-2.089-2.738-2.438-5.44h13.354c3.95 0 6.817-.863 8.591-2.589zm-11.667-4.09H166.21c.15-3.401.75-5.665 1.8-6.79 1.052-1.128 3.003-1.69 5.854-1.69 2.4 0 4.054.338 4.954 1.012.899.679 1.349 1.89 1.349 3.641 0 1.253-.241 2.2-.715 2.85s-1.389.976-2.738.976zm62.134-21.01c0 2.402.124 4.979.377 7.729-3.256-2.2-7.254-3.304-12.007-3.304-4.854 0-8.431 1.43-10.731 4.28-2.3 2.85-3.453 7.828-3.453 14.93 0 6.503 1.04 11.421 3.115 14.745 2.076 3.328 5.416 4.99 10.017 4.99 5.853 0 10.554-2.1 14.107-6.302l.903 5.403h8.78v-52.527h-11.108v10.057zm0 31.214c-1.75 1.152-3.176 1.94-4.276 2.365-1.1.425-2.429.638-3.978.638-2.3 0-3.902-.714-4.802-2.14-.899-1.425-1.353-4.263-1.353-8.515 0-4.452.466-7.378 1.39-8.78.927-1.4 2.637-2.1 5.142-2.1 1.9 0 4.525.475 7.877 1.426v17.106zm52.41-6.114c1.779-1.726 2.666-4.316 2.666-7.768-.052-4.352-1.453-7.588-4.203-9.715-2.75-2.128-7.203-3.192-13.357-3.192-6.805 0-11.642 1.453-14.52 4.356-2.875 2.898-4.312 7.977-4.312 15.231 0 6.905 1.473 11.855 4.424 14.858 2.955 2.999 7.905 4.5 14.858 4.5 6.905 0 12.28-.923 16.134-2.774l-1.051-6.905c-5.252.55-9.856.827-13.807.827-2.95 0-5.066-.461-6.339-1.389-1.276-.927-2.091-2.738-2.44-5.44h13.356c3.95 0 6.817-.863 8.591-2.589zm-11.666-4.09h-10.506c.152-3.401.75-5.665 1.802-6.79 1.048-1.128 3-1.69 5.853-1.69 2.401 0 4.051.338 4.95 1.012.904.679 1.353 1.89 1.353 3.641 0 1.253-.24 2.2-.714 2.85s-1.39.976-2.738.976zm53.125 13.13c-2.802 0-4.2-1.248-4.2-3.749v-40.447h-11.031v43.221c0 3.252.947 5.77 2.85 7.544s4.504 2.661 7.804 2.661c4.003 0 6.954-.497 8.856-1.501l-1.276-7.728h-3.003zm12.983-45.247h-2.477c-1.349 0-2.3.264-2.85.79-.55.522-.851 1.462-.9 2.815l-.076 3.673c0 2.051 1 3.08 3.003 3.08-.1 3.452-.45 6.378-1.052 8.78l4.352 1.272c2.4-3.75 3.625-7.901 3.677-12.454v-4.351c0-1.353-.26-2.293-.786-2.815-.526-.526-1.49-.79-2.891-.79zm24.164 11.706c.55-.598 1.45-.9 2.702-.9h19.884l.526-8.478c-4.705-.502-12.71-.75-24.015-.75-3.449 0-6.203.935-8.254 2.813-2.052 1.875-3.1 4.416-3.152 7.616v31.366c.052 3.204 1.1 5.74 3.152 7.616s4.805 2.814 8.254 2.814c11.305 0 19.31-.249 24.015-.75l-.526-8.403h-19.884c-1.253 0-2.152-.301-2.702-.904-.554-.598-.827-1.597-.827-2.998v-9.98h20.635v-8.255h-20.635v-7.88c0-1.35.273-2.325.827-2.927zm53.952 20.563l-9.458-2.554c-.25-.048-.61-.136-1.088-.26a39.786 39.786 0 0 1-.976-.265c-.173-.049-.426-.137-.75-.261s-.55-.213-.675-.265a3.023 3.023 0 0 1-.486-.261c-.2-.125-.337-.237-.413-.338a3.32 3.32 0 0 1-.261-.413 1.393 1.393 0 0 1-.19-.562c-.027-.2-.04-.426-.04-.675 0-.65.077-1.14.23-1.465.148-.325.562-.562 1.236-.71a11.268 11.268 0 0 1 2.027-.265c.675-.024 1.887-.037 3.638-.037 3.2 0 7.953.049 14.26.149l.746-7.126c-4.753-.851-10.454-1.325-17.106-1.43-5.753 0-9.82.804-12.196 2.406-2.377 1.602-3.561 4.327-3.561 8.177 0 3.051.646 5.44 1.95 7.166 1.298 1.727 3.65 3.092 7.055 4.091l9.23 2.473c.248.105.621.217 1.123.342.498.124.851.212 1.052.26.197.053.474.137.823.261.35.129.59.225.715.302.124.076.3.176.525.3.225.125.386.237.486.338s.201.237.301.413c.1.177.16.362.189.562.024.201.036.426.036.675 0 1.2-.59 1.963-1.762 2.288-1.177.33-3.69.49-7.544.49-6.752 0-11.028-.048-12.83-.153l-.675 7.207c5.05.85 10.579 1.276 16.585 1.276 6.202 0 10.578-.79 13.131-2.364 2.55-1.578 3.826-4.565 3.826-8.969 0-3.1-.702-5.44-2.1-7.013-1.405-1.578-3.753-2.843-7.053-3.79zm40.816-16.66c-2.802 0-5.564.601-8.29 1.802s-4.866 2.726-6.415 4.576l-.827-5.403h-9.005v51.25h11.032v-8.928c.1-2.75.024-5.404-.225-7.953 3.252 2.4 7.38 3.6 12.381 3.6 4.85 0 8.415-1.412 10.691-4.239 2.276-2.826 3.417-7.792 3.417-14.894 0-13.208-4.252-19.812-12.759-19.812zm-.036 28.591c-.927 1.401-2.613 2.1-5.066 2.1-1.703 0-4.5-.498-8.403-1.502v-16.957c3.601-2.353 6.628-3.53 9.077-3.53 2.152 0 3.653.764 4.504 2.29.852 1.529 1.277 4.467 1.277 8.82 0 4.451-.466 7.378-1.389 8.78zm39.732-28.668c-6.202 0-12.63.602-19.286 1.802l1.052 7.504c6.303-.398 11.506-.598 15.609-.598 2.352 0 3.938.325 4.765.975.823.65 1.26 1.923 1.313 3.826v1.65h-13.208c-3.553 0-6.327.827-8.326 2.477-2.004 1.65-3.003 3.95-3.003 6.905v3.75c0 3.352 1.124 5.965 3.376 7.84 2.252 1.879 5.15 2.814 8.704 2.814 5.403 0 9.956-2.175 13.657-6.527l1.124 5.628h8.78v-24.46c0-5.003-1.176-8.52-3.525-10.547-2.352-2.023-6.03-3.04-11.032-3.04zm3.453 27.014c-3.152 2.4-6.227 3.605-9.23 3.605-2.902 0-4.351-1.276-4.351-3.83v-1.425c0-2.3 1.2-3.477 3.6-3.525h9.98v5.175zm38.865 2.927c-3.4 0-5.74-.723-7.017-2.176-1.273-1.45-1.911-4.2-1.911-8.254 0-4.05.638-6.8 1.91-8.254 1.277-1.45 3.618-2.176 7.018-2.176 1.65 0 5.179.052 10.583.152l1.2-6.905c-3.505-1.55-8.057-2.328-13.658-2.328-6.857 0-11.682 1.465-14.484 4.392s-4.2 7.965-4.2 15.119c0 7.106 1.385 12.12 4.164 15.047 2.778 2.926 7.567 4.387 14.368 4.387 5.753 0 10.53-.823 14.332-2.477l-.972-7.202c-3.203.45-6.981.675-11.333.675zm37.52.152c-2.95 0-5.066-.461-6.339-1.389-1.276-.927-2.091-2.738-2.44-5.44h13.356c3.95 0 6.817-.863 8.591-2.589 1.779-1.726 2.666-4.316 2.666-7.768-.052-4.352-1.453-7.588-4.203-9.715-2.75-2.128-7.202-3.192-13.357-3.192-6.805 0-11.642 1.453-14.52 4.356-2.875 2.898-4.312 7.977-4.312 15.231 0 6.905 1.473 11.855 4.424 14.858 2.955 2.999 7.905 4.5 14.858 4.5 6.905 0 12.28-.923 16.134-2.774l-1.051-6.905c-5.251.55-9.856.827-13.807.827zm-7.202-20.297c1.048-1.129 3-1.69 5.854-1.69 2.4 0 4.05.337 4.95 1.011.903.679 1.352 1.89 1.352 3.641 0 1.253-.24 2.2-.714 2.85-.474.651-1.39.976-2.738.976h-10.506c.152-3.4.75-5.664 1.802-6.788z" fill="#255a88"/><linearGradient id="h" gradientUnits="userSpaceOnUse" x1="232.909" y1="126.08" x2="351.197" y2="126.08"><stop offset=".001" stop-color="#0f568a"/><stop offset=".15" stop-color="#155f92"/><stop offset=".397" stop-color="#2579a7"/><stop offset=".71" stop-color="#40a2ca"/><stop offset=".993" stop-color="#5bcdee"/></linearGradient><path fill="url(#h)" d="M232.909 139.506L337.936 82.22l13.261 21.217-118.288 66.506z"/><linearGradient id="i" gradientUnits="userSpaceOnUse" x1="413.259" y1="26.257" x2="497.6" y2="26.257"><stop offset=".001" stop-color="#06467c"/><stop offset=".179" stop-color="#0c4f84"/><stop offset=".473" stop-color="#1c699a"/><stop offset=".847" stop-color="#3692bd"/><stop offset=".993" stop-color="#42a4cd"/></linearGradient><path fill="url(#i)" d="M413.26 37.661L477.442 0 497.6 9.548l-67.897 42.966z"/></svg>