<svg xmlns="http://www.w3.org/2000/svg" viewBox="0 0 600 340" width="600" height="340">
  <rect width="600" height="340" fill="#f0fdf4"/>
  <rect x="20" y="20" width="560" height="300" rx="16" fill="#dcfce7" opacity="0.5"/>
  <!-- Book stack -->
  <rect x="140" y="180" width="200" height="20" rx="4" fill="#047857" opacity="0.9"/>
  <rect x="150" y="155" width="180" height="28" rx="4" fill="#059669" opacity="0.9"/>
  <rect x="145" y="125" width="190" height="32" rx="4" fill="#064e3b" opacity="0.9"/>
  <!-- Book spine lines -->
  <rect x="160" y="130" width="2" height="22" rx="1" fill="#6ee7b7" opacity="0.5"/>
  <rect x="155" y="160" width="2" height="18" rx="1" fill="#6ee7b7" opacity="0.4"/>
  <rect x="155" y="185" width="2" height="12" rx="1" fill="#6ee7b7" opacity="0.3"/>
  <!-- Knowledge nodes -->
  <circle cx="400" cy="120" r="30" fill="#064e3b" opacity="0.9"/>
  <text x="400" y="116" text-anchor="middle" font-family="system-ui, sans-serif" font-size="9" font-weight="700" fill="#6ee7b7">KALISIO</text>
  <text x="400" y="130" text-anchor="middle" font-family="system-ui, sans-serif" font-size="9" font-weight="600" fill="#fff">DOCS</text>
  <circle cx="460" cy="170" r="18" fill="#059669" opacity="0.8"/>
  <text x="460" y="175" text-anchor="middle" font-family="system-ui, sans-serif" font-size="8" fill="#fff">KDK</text>
  <circle cx="340" cy="180" r="18" fill="#047857" opacity="0.8"/>
  <text x="340" y="185" text-anchor="middle" font-family="system-ui, sans-serif" font-size="8" fill="#fff">API</text>
  <circle cx="420" cy="210" r="18" fill="#059669" opacity="0.8"/>
  <text x="420" y="215" text-anchor="middle" font-family="system-ui, sans-serif" font-size="8" fill="#fff">Guide</text>
  <line x1="428" y1="146" x2="444" y2="154" stroke="#059669" stroke-width="1.5" opacity="0.5"/>
  <line x1="372" y1="146" x2="356" y2="164" stroke="#047857" stroke-width="1.5" opacity="0.5"/>
  <line x1="400" y1="150" x2="400" y2="192" stroke="#059669" stroke-width="1.5" opacity="0.4"/>
  <text x="300" y="318" text-anchor="middle" font-family="system-ui, sans-serif" font-size="13" font-weight="600" fill="#064e3b">Kalisio Knowledge · Documentation · VitePress</text>
</svg>
